<?xml version="1.0" encoding="iso-8859-1"?>
<!-- Generator: Adobe Illustrator 19.0.0, SVG Export Plug-In . SVG Version: 6.00 Build 0)  -->
<svg version="1.1" id="Layer_1" xmlns="http://www.w3.org/2000/svg" xmlns:xlink="http://www.w3.org/1999/xlink" x="0px" y="0px"
	 viewBox="0 0 224 224" style="enable-background:new 0 0 224 224;" xml:space="preserve">
<g>
	<g>
		<g>
			<path d="M211.992,57.373H12.008C5.387,57.373,0,62.762,0,69.385v135.976c0,6.623,5.387,12.012,12.008,12.012h199.984
				c6.621,0,12.008-5.389,12.008-12.012V69.385C224,62.762,218.613,57.373,211.992,57.373z M216,205.361
				c0,2.213-1.799,4.012-4.008,4.012H12.008c-2.209,0-4.008-1.799-4.008-4.012V69.385c0-2.213,1.799-4.012,4.008-4.012h199.984
				c2.209,0,4.008,1.799,4.008,4.012V205.361z"/>
			<path d="M16,193.373h192v-120H16V193.373z M24,81.373h176v104H24V81.373z"/>
			<path d="M134,197.373H90c-2.209,0-4,1.791-4,4s1.791,4,4,4h44c2.209,0,4-1.791,4-4S136.209,197.373,134,197.373z"/>
			<path d="M184,89.373h-78c-2.209,0-4,1.791-4,4s1.791,4,4,4h78c2.209,0,4-1.791,4-4S186.209,89.373,184,89.373z"/>
			<path d="M184,109.373h-78c-2.209,0-4,1.791-4,4s1.791,4,4,4h78c2.209,0,4-1.791,4-4S186.209,109.373,184,109.373z"/>
			<path d="M184,129.373h-78c-2.209,0-4,1.791-4,4s1.791,4,4,4h78c2.209,0,4-1.791,4-4S186.209,129.373,184,129.373z"/>
			<path d="M184,149.373h-78c-2.209,0-4,1.791-4,4s1.791,4,4,4h78c2.209,0,4-1.791,4-4S186.209,149.373,184,149.373z"/>
			<path d="M84.887,38.545c-1.562,1.562-1.562,4.094,0,5.656c1.562,1.562,4.094,1.562,5.656,0c14.039-14.035,36.875-14.035,50.914,0
				c0.781,0.781,1.805,1.172,2.828,1.172s2.047-0.391,2.828-1.172c1.562-1.562,1.562-4.094,0-5.656
				C129.957,21.389,102.043,21.389,84.887,38.545z"/>
			<path d="M73.574,32.201C84.906,20.869,99.973,14.627,116,14.627c16.027,0,31.094,6.242,42.426,17.574
				c0.781,0.781,1.805,1.172,2.828,1.172s2.047-0.391,2.828-1.172c1.562-1.562,1.562-4.094,0-5.656
				C151.24,13.701,134.164,6.627,116,6.627s-35.24,7.074-48.082,19.918c-1.562,1.562-1.562,4.094,0,5.656
				C69.48,33.764,72.012,33.764,73.574,32.201z"/>
			<path d="M88,89.373H40c-2.209,0-4,1.791-4,4v80c0,2.209,1.791,4,4,4h48c2.209,0,4-1.791,4-4v-80
				C92,91.164,90.209,89.373,88,89.373z M84,169.373H44v-72h40V169.373z"/>
		</g>
	</g>
</g>
<g>
</g>
<g>
</g>
<g>
</g>
<g>
</g>
<g>
</g>
<g>
</g>
<g>
</g>
<g>
</g>
<g>
</g>
<g>
</g>
<g>
</g>
<g>
</g>
<g>
</g>
<g>
</g>
<g>
</g>
</svg>
